<?xml version="1.0" encoding="UTF-8"?>
<svg version="1.1" xmlns="http://www.w3.org/2000/svg" width="469" height="104">
<path d="M0 0 C7.96902145 5.68271845 13.78138637 13.75944485 15.54296875 23.4921875 C16.21232055 31.66385739 16.79670368 39.46504622 11.25390625 46.015625 C8.54104697 48.64144067 6.57833834 49.48679214 2.85546875 50.0546875 C-0.45703125 49.4921875 -0.45703125 49.4921875 -2.109375 47.84765625 C-3.78317701 44.92214142 -4.0068862 42.58880239 -4.33203125 39.2421875 C-5.3323889 31.87591756 -7.53751489 27.33487449 -12.83203125 22.1796875 C-18.92267503 18.26427364 -24.27618592 16.41145827 -31.45703125 17.4921875 C-38.80443018 19.71794678 -43.85194665 23.45185259 -47.76953125 30.1171875 C-50.37273264 35.74860275 -50.73111639 42.01844864 -48.5859375 47.8671875 C-47.91065259 49.21281017 -47.19579488 50.53987054 -46.4296875 51.8359375 C-45.45703125 53.4921875 -45.45703125 53.4921875 -44.45703125 56.4921875 C-42.60633774 57.60272172 -42.60633774 57.60272172 -40.45703125 58.4921875 C-39.85503906 58.84539062 -39.25304687 59.19859375 -38.6328125 59.5625 C-33.62895838 62.39487025 -29.19489214 63.59475685 -23.45703125 62.4921875 C-20.7009383 61.07174169 -20.7009383 61.07174169 -19.45703125 58.4921875 C-19.82783204 55.38112909 -19.82783204 55.38112909 -20.45703125 52.4921875 C-21.3490625 52.39421875 -22.24109375 52.29625 -23.16015625 52.1953125 C-24.330625 52.04578125 -25.50109375 51.89625 -26.70703125 51.7421875 C-27.8671875 51.60296875 -29.02734375 51.46375 -30.22265625 51.3203125 C-33.85407624 50.39052864 -35.18044776 49.41922342 -37.45703125 46.4921875 C-38.66346691 42.87288052 -38.77971684 40.29987745 -38.45703125 36.4921875 C-36.74486088 33.13126047 -35.3928917 31.09009835 -32.20703125 29.0546875 C-28.49113772 28.29461837 -25.04172225 28.14113919 -21.45703125 29.4921875 C-16.79247068 33.18124351 -15.73595362 36.06549198 -14.89453125 41.8671875 C-13.47919952 50.91487408 -13.47919952 50.91487408 -7.7734375 57.7890625 C-2.5762802 60.84252313 2.63060341 61.42265811 8.54296875 60.4921875 C14.6035454 58.02686818 18.99547124 54.00363625 22.54296875 48.4921875 C23.76806376 45.33355595 24.75245474 42.20737944 25.62109375 38.93359375 C25.9253125 38.12792969 26.22953125 37.32226562 26.54296875 36.4921875 C27.53296875 36.1621875 28.52296875 35.8321875 29.54296875 35.4921875 C30.28652464 49.48205394 26.92712289 62.27289966 17.91796875 73.1796875 C9.11046793 82.56881574 -2.08942286 87.83763525 -14.8671875 88.73046875 C-29.48585792 89.02753264 -41.82717743 85.42870264 -52.7421875 75.390625 C-61.85132325 65.75367017 -66.43486278 53.71962429 -66.83203125 40.4921875 C-66.3909136 26.94105321 -61.62922745 15.08059366 -51.76953125 5.6171875 C-37.09019981 -6.74672106 -16.7904219 -10.30382012 0 0 Z " fill="#BBDD31" transform="translate(67.45703125,8.5078125)"/>
<path d="M0 0 C5.61 0 11.22 0 17 0 C17.33 12.87 17.66 25.74 18 39 C19.32 36.36 20.64 33.72 22 31 C27.79456582 24.12199645 34.57993574 21.29147474 43.3125 20.1875 C53.33787142 19.55052889 62.13429865 21.51182954 70 28 C76.32915402 35.32504575 78.46319448 42.38815632 78.23828125 51.9765625 C77.53142343 60.94554531 73.8055922 67.1144012 67 73 C58.30106291 78.25410011 47.94627003 79.52928491 38.0546875 77.3515625 C30.01914954 74.73273815 23.78820175 70.44358595 19.5 63.0625 C18.7575 61.5465625 18.7575 61.5465625 18 60 C17.67 65.28 17.34 70.56 17 76 C7.0390625 76.29296875 7.0390625 76.29296875 4 76 C3.34 75.01 2.68 74.02 2 73 C1.48050781 73.27714844 0.96101563 73.55429688 0.42578125 73.83984375 C-7.500899 77.95702887 -14.98533796 79.36959383 -23.84765625 77.3515625 C-31.3407844 74.93974409 -36.15354806 71.58312649 -40.3125 64.88671875 C-44.18786987 56.88031225 -44.49082793 46.74805849 -42.26953125 38.18359375 C-39.04050715 30.39439685 -34.24402408 25.47427617 -26.60546875 21.9765625 C-18.98004886 19.11845909 -11.77332914 19.90670979 -4 22 C-2.68 22.66 -1.36 23.32 0 24 C0 16.08 0 8.16 0 0 Z M-24 41 C-26.53885434 45.25476968 -26.66405771 49.15826274 -26 54 C-24.11280615 58.07633872 -22.60608262 59.63868152 -18.75 61.9375 C-14.05597494 63.26747377 -11.73818235 63.14633444 -7 62 C-2.31719855 59.29438138 -0.44301591 56.17788061 1 51 C0.80444319 46.04305997 -0.31601513 42.82078184 -3.5 39 C-7.5523126 35.75814992 -10.36086785 35.60428498 -15.453125 35.6484375 C-19.62161229 36.22384219 -21.19423148 37.91365463 -24 41 Z M36 41 C33.71533162 44.94624538 33.52590259 48.49607457 34 53 C36.05693103 56.82001478 38.12338304 59.95400772 42 62 C46.53001273 63.0229061 48.8651976 63.39281621 53.25 61.875 C56.92238961 59.37109799 59.37839825 57.30333253 60.5703125 52.88671875 C61.37971321 47.76338446 61.1315185 44.34371921 58 40 C54.4967262 36.75306331 51.67474052 35.69759834 47 35.4375 C41.70079807 35.66096032 39.49895986 37.06367016 36 41 Z " fill="#151414" transform="translate(390,7)"/>
<path d="M0 0 C5.61 0 11.22 0 17 0 C17 13.53 17 27.06 17 41 C20.63 40.34 24.26 39.68 28 39 C28.433125 37.68 28.86625 36.36 29.3125 35 C30.75371371 30.60772965 32.37177589 26.34193095 34 22 C40.27 22 46.54 22 53 22 C51.31118545 28.09849699 49.31955194 33.99292038 47 39.875 C46.7510498 40.51703369 46.50209961 41.15906738 46.24560547 41.82055664 C44.85564409 45.28635751 43.29563221 48.07386603 41 51 C41.63615234 52.02939697 41.63615234 52.02939697 42.28515625 53.07958984 C44.19469931 56.17525292 46.09742431 59.27505042 48 62.375 C48.66773438 63.45523438 49.33546875 64.53546875 50.0234375 65.6484375 C50.65507812 66.6796875 51.28671875 67.7109375 51.9375 68.7734375 C52.52402344 69.72653809 53.11054688 70.67963867 53.71484375 71.66162109 C55 74 55 74 55 76 C37.90707844 78.06335982 37.90707844 78.06335982 33.31591797 74.8046875 C30.30589015 71.33029357 28.7048841 67.23984296 27 63 C26.44441406 62.07574219 25.88882813 61.15148437 25.31640625 60.19921875 C24 58 24 58 24 56 C21.69 56 19.38 56 17 56 C17 62.6 17 69.2 17 76 C11.39 76 5.78 76 0 76 C-0.495 72.04 -0.495 72.04 -1 68 C-1.598125 68.9075 -2.19625 69.815 -2.8125 70.75 C-7.26769064 76.0163598 -13.62611982 77.64337846 -20.2890625 78.34765625 C-29.98932225 78.60890446 -37.26364345 77.09251467 -44.58984375 70.59765625 C-48.14432356 66.57055862 -48.20440716 63.31458621 -48 58 C-45.4149133 57.86473384 -42.83691248 57.76582347 -40.25 57.6875 C-39.52039063 57.64560547 -38.79078125 57.60371094 -38.0390625 57.56054688 C-35.890625 57.51171875 -35.890625 57.51171875 -32 58 C-29.63671875 60.4609375 -29.63671875 60.4609375 -28 63 C-24.81316116 64.22570725 -23.43801331 64.14600444 -20.1875 63.0625 C-19.465625 62.711875 -18.74375 62.36125 -18 62 C-18.17162225 60.02546853 -18.17162225 60.02546853 -19 58 C-20.87346551 56.98964098 -20.87346551 56.98964098 -23.2265625 56.5078125 C-24.09410156 56.27707031 -24.96164063 56.04632813 -25.85546875 55.80859375 C-27.67791471 55.35876576 -29.50082095 54.91079777 -31.32421875 54.46484375 C-38.26965087 52.61341044 -43.68441486 49.92642698 -47.4375 43.5625 C-48.81680939 37.27897944 -48.08915002 32.64568796 -45 27 C-38.97405241 21.13262998 -32.13298493 20.09384213 -24 20 C-15.55354049 20.65532875 -9.92703203 22.28523997 -3.6875 28.1875 C-1.31291352 32.14514414 -1.27395048 35.41132948 -1 40 C-6.28 40 -11.56 40 -17 40 C-17.66 38.68 -18.32 37.36 -19 36 C-21.28705831 34.85647084 -22.59264762 34.89665561 -25.125 34.9375 C-27.043125 34.9684375 -27.043125 34.9684375 -29 35 C-29.33 36.32 -29.66 37.64 -30 39 C-25.17222308 40.89324585 -20.35741825 42.49356894 -15.375 43.9375 C-9.13478159 45.83198114 -4.71735733 47.423964 -1 53 C-0.67 35.51 -0.34 18.02 0 0 Z " fill="#151414" transform="translate(166,8)"/>
<path d="M0 0 C5.44110063 4.14021378 10.65446888 9.90467121 12.87890625 16.4296875 C12.93579102 18.87963867 12.93579102 18.87963867 11.87890625 21.4296875 C9.17822828 22.89354331 6.77112746 23.9535061 3.90625 24.98046875 C3.10860733 25.28413864 2.31096466 25.58780853 1.489151 25.90068054 C-1.06173927 26.86686847 -3.62204428 27.80467239 -6.18359375 28.7421875 C-7.91410405 29.39203885 -9.64393224 30.04370975 -11.37304688 30.69726562 C-15.61476742 32.29596557 -19.86514254 33.8692879 -24.12109375 35.4296875 C-21.20751912 38.55997316 -21.20751912 38.55997316 -17.16796875 39.484375 C-11.17639848 39.01564671 -8.28756967 37.79940615 -4.12109375 33.4296875 C-3.87101562 32.77097656 -3.6209375 32.11226562 -3.36328125 31.43359375 C-1.46947796 28.37849598 0.99454741 27.87955624 4.31640625 26.6796875 C5.47011719 26.25171875 6.62382812 25.82375 7.8125 25.3828125 C10.87890625 24.4296875 10.87890625 24.4296875 13.87890625 24.4296875 C14.46816625 32.53201254 12.22281221 37.91382856 7.75390625 44.6171875 C1.78139161 51.21451906 -6.56007493 54.77239053 -15.265625 55.64453125 C-22.62052748 55.96654975 -29.93486934 54.45377042 -35.87109375 49.9296875 C-41.94578634 44.18608005 -45.623402 36.29670751 -46.32421875 28.03515625 C-46.50945859 18.47986774 -43.72468746 11.42349357 -37.12109375 4.4296875 C-27.18131851 -3.98424505 -11.56258822 -6.61409013 0 0 Z M-27.49609375 16.8671875 C-29.47812177 19.48697505 -29.47812177 19.48697505 -29.12109375 23.4296875 C-24.09635082 22.81137801 -19.87388881 21.29991974 -15.24609375 19.3671875 C-14.55773437 19.08552734 -13.869375 18.80386719 -13.16015625 18.51367188 C-11.47819466 17.82453484 -9.79931678 17.12787952 -8.12109375 16.4296875 C-8.81678149 14.40627886 -8.81678149 14.40627886 -10.12109375 12.4296875 C-16.93381381 9.93623196 -22.544387 11.78517267 -27.49609375 16.8671875 Z " fill="#B9DA30" transform="translate(329.12109375,30.5703125)"/>
<path d="M0 0 C4.02709403 3.73700675 7.6532463 8.05904861 9.09375 13.4609375 C9.109375 15.86791992 9.109375 15.86791992 8.09375 18.4609375 C5.47637063 19.90068917 3.15645059 20.93446388 0.375 21.94140625 C-0.39807495 22.24033279 -1.1711499 22.53925934 -1.96765137 22.84724426 C-4.44040641 23.79998242 -6.9223083 24.72530239 -9.40625 25.6484375 C-11.88822017 26.58667308 -14.36784885 27.53048571 -16.84484863 28.48176575 C-18.38738912 29.07249622 -19.93317367 29.65483506 -21.4822998 30.22807312 C-25.41074198 31.45972807 -25.41074198 31.45972807 -27.90625 34.4609375 C-23.17245479 37.05688971 -19.00744735 36.57392601 -13.90625 35.4609375 C-10.25939442 33.95462759 -9.21213051 33.19019548 -7.67578125 29.52734375 C-5.42856431 25.63315987 -3.66133106 25.04215748 0.53125 23.5859375 C1.66433594 23.17601563 2.79742187 22.76609375 3.96484375 22.34375 C7.09375 21.4609375 7.09375 21.4609375 11.09375 21.4609375 C10.17559715 30.81659844 8.20319701 37.73495812 1.16796875 44.2421875 C-6.90931672 50.64127968 -15.62383146 53.38200105 -25.90625 52.4609375 C-33.0184951 50.95047742 -39.18818811 48.09337044 -43.6015625 42.1953125 C-48.63422492 34.269477 -51.18822579 26.55842166 -49.4765625 17.08203125 C-47.4115613 8.73279802 -42.95700947 3.23865111 -35.78125 -1.4140625 C-24.1836631 -8.06037192 -10.72604932 -8.65996605 0 0 Z M-31.90625 14.9609375 C-33.03648738 17.78653094 -32.76374483 18.65026 -31.90625 21.4609375 C-28.58932302 20.18043906 -25.27856481 18.88469715 -21.96875 17.5859375 C-20.55045898 17.03873047 -20.55045898 17.03873047 -19.10351562 16.48046875 C-18.20439453 16.12597656 -17.30527344 15.77148438 -16.37890625 15.40625 C-15.54625244 15.08156738 -14.71359863 14.75688477 -13.85571289 14.42236328 C-11.73402329 13.62012666 -11.73402329 13.62012666 -10.90625 11.4609375 C-18.43708741 5.98396484 -26.25308932 7.89448665 -31.90625 14.9609375 Z " fill="#B9DB30" transform="translate(268.90625,34.5390625)"/>
<path d="M0 0 C1.6875 1.1875 1.6875 1.1875 3.6875 4.1875 C4.3296226 8.65995857 4.4295161 12.77092381 2.3125 16.8125 C-1.84118931 18.98824202 -5.73733758 19.02270736 -10.3125 18.1875 C-13.4375 16.1875 -13.4375 16.1875 -15.3125 13.1875 C-15.9767453 9.58057659 -15.6723759 6.32710702 -14.5625 2.8125 C-11.01293364 -1.80193627 -5.21856297 -1.83354915 0 0 Z " fill="#B2D22E" transform="translate(100.3125,16.8125)"/>
<path d="M0 0 C-1.38188453 3.21043882 -2.92421903 5.04936365 -5.625 7.25 C-6.57246094 8.03117187 -6.57246094 8.03117187 -7.5390625 8.828125 C-8.02117187 9.21484375 -8.50328125 9.6015625 -9 10 C-9 7 -9 7 -7.5390625 5.17578125 C-6.90742188 4.56089844 -6.27578125 3.94601563 -5.625 3.3125 C-4.68527344 2.37857422 -4.68527344 2.37857422 -3.7265625 1.42578125 C-2 0 -2 0 0 0 Z " fill="#8EA722" transform="translate(233,34)"/>
<path d="M0 0 C0.66 0 1.32 0 2 0 C0.44499019 3.81684226 -2.03595495 6.19195732 -5 9 C-5.66 8.67 -6.32 8.34 -7 8 C-5.88200014 6.66079162 -4.75538103 5.32877444 -3.625 4 C-2.68527344 2.88625 -2.68527344 2.88625 -1.7265625 1.75 C-1.15679687 1.1725 -0.58703125 0.595 0 0 Z " fill="#8CA624" transform="translate(17,13)"/>
</svg>
