<?xml version="1.0" encoding="UTF-8"?>
<svg version="1.1" xmlns="http://www.w3.org/2000/svg" width="625" height="625">
<path d="M0 0 C7.98661413 5.70472438 13.72929515 13.74960662 15.5390625 23.4921875 C16.16939829 30.68852105 16.44245473 37.24675993 12.5390625 43.4921875 C9.85908335 46.5832549 7.47396068 48.32720547 3.3515625 49.0546875 C0.5390625 48.4921875 0.5390625 48.4921875 -1.08203125 46.84765625 C-2.79570651 43.92032996 -3.00880363 41.60927267 -3.3359375 38.2421875 C-4.33629515 30.87591756 -6.54142114 26.33487449 -11.8359375 21.1796875 C-18.35793625 16.98697402 -23.71751751 15.42820613 -31.4609375 16.4921875 C-38.79236758 18.65327465 -43.83885457 22.45606405 -47.7734375 29.0546875 C-50.49410054 34.92909872 -50.76617943 41.83399823 -48.58984375 47.93359375 C-47.56842965 50.03081911 -47.56842965 50.03081911 -46.43359375 51.87109375 C-45.4609375 53.4921875 -45.4609375 53.4921875 -44.4609375 56.4921875 C-42.60709826 57.60167056 -42.60709826 57.60167056 -40.4609375 58.4921875 C-39.87054688 58.84539062 -39.28015625 59.19859375 -38.671875 59.5625 C-33.3581715 62.61505307 -28.54565998 63.5331365 -22.4609375 62.4921875 C-19.62019288 61.15396591 -19.62019288 61.15396591 -18.4609375 58.4921875 C-18.60706645 54.79786239 -18.60706645 54.79786239 -19.4609375 51.4921875 C-20.35296875 51.39421875 -21.245 51.29625 -22.1640625 51.1953125 C-23.33453125 51.04578125 -24.505 50.89625 -25.7109375 50.7421875 C-26.87109375 50.60296875 -28.03125 50.46375 -29.2265625 50.3203125 C-32.88360027 49.3839695 -34.21964092 48.49125578 -36.4609375 45.4921875 C-38.05417611 40.92822272 -37.89157181 37.40314469 -35.8359375 33.0546875 C-33.30888629 30.32813224 -32.07607896 29.24884501 -28.4609375 28.4921875 C-24.25996847 28.5672048 -22.14208325 28.94706787 -18.83984375 31.58984375 C-15.97700923 35.08259588 -15.542041 37.42947386 -14.8984375 41.8671875 C-13.47564997 50.89303818 -13.47564997 50.89303818 -7.8125 57.7890625 C-2.34758494 61.04570576 3.32667932 61.38632361 9.5390625 60.4921875 C15.57237959 58.61775889 20.18808455 53.68536974 23.5390625 48.4921875 C24.79832186 45.33621762 25.80926099 42.20762372 26.71484375 38.93359375 C27.5390625 36.4921875 27.5390625 36.4921875 29.5390625 35.4921875 C30.34852872 49.04325156 26.59584456 61.66922743 17.9140625 72.1796875 C9.1684949 81.50279258 -1.96461941 86.78316008 -14.65234375 87.73046875 C-28.91703327 88.04452333 -41.13113524 84.15275779 -51.74609375 74.390625 C-60.68663673 64.93203187 -65.40535166 53.00336839 -65.8359375 39.9921875 C-65.35775606 26.66048899 -60.44741703 14.90234148 -50.7734375 5.6171875 C-36.22888649 -6.63320003 -16.64456233 -10.19809692 0 0 Z " fill="#CAEF35" transform="translate(128.4609375,262.5078125)"/>
<path d="M0 0 C5.28 0 10.56 0 16 0 C16 24.75 16 49.5 16 75 C12.04 75 8.08 75 4 75 C3.34 73.68 2.68 72.36 2 71 C1.154375 71.61875 0.30875 72.2375 -0.5625 72.875 C-6.83473044 76.99800462 -13.65980148 77.84406941 -21 77 C-28.55852219 75.26372324 -34.45043427 72.40400828 -39 66 C-43.73609687 58.24746048 -43.96233617 49.86515744 -43 41 C-41.23769791 34.36545096 -37.61278198 28.33880097 -31.7734375 24.55859375 C-22.72753583 19.64356049 -14.84787406 19.09156051 -5 22 C-3.68 22.66 -2.36 23.32 -1 24 C-0.67 16.08 -0.34 8.16 0 0 Z M-25 40 C-27.54357776 44.25391452 -27.55514359 48.1598418 -27 53 C-25.25232015 57.13924176 -22.80595454 59.63185051 -19 62 C-13.01602279 63.44773642 -9.45470271 63.251842 -4 60 C-0.45306481 55.89302241 0.90480136 52.42632266 1 47 C-0.50207872 42.3356503 -2.23689613 39.15615163 -6 36 C-12.91587477 32.54206262 -20.14321221 34.52054711 -25 40 Z " fill="#171616" transform="translate(452,261)"/>
<path d="M0 0 C5.28 0 10.56 0 16 0 C16 13.53 16 27.06 16 41 C19.96 40.34 23.92 39.68 28 39 C28.433125 37.68 28.86625 36.36 29.3125 35 C30.75371371 30.60772965 32.37177589 26.34193095 34 22 C39.94 22 45.88 22 52 22 C50.94807311 25.14971768 49.88386258 28.29439279 48.8125 31.4375 C48.52052734 32.31599609 48.22855469 33.19449219 47.92773438 34.09960938 C45.8596613 40.12592984 43.28071903 45.53936794 40 51 C40.42410156 51.69150146 40.84820312 52.38300293 41.28515625 53.09545898 C43.19239173 56.20807777 45.09623862 59.32275527 47 62.4375 C47.66773438 63.52611328 48.33546875 64.61472656 49.0234375 65.73632812 C49.65507812 66.77080078 50.28671875 67.80527344 50.9375 68.87109375 C51.52402344 69.82943115 52.11054688 70.78776855 52.71484375 71.77514648 C54 74 54 74 54 75 C37.64181238 76.92934269 37.64181238 76.92934269 33.36328125 73.8046875 C30.38274564 70.31397012 28.74131663 66.21972467 27 62 C26.443125 61.07574219 25.88625 60.15148437 25.3125 59.19921875 C24 57 24 57 24 55 C21.36 55 18.72 55 16 55 C16 61.6 16 68.2 16 75 C10.72 75 5.44 75 0 75 C0 50.25 0 25.5 0 0 Z " fill="#171616" transform="translate(228,262)"/>
<path d="M0 0 C5.49728911 4.1061384 10.63846205 9.90629955 12.9140625 16.4296875 C12.67857361 18.48895264 12.67857361 18.48895264 11.9140625 20.4296875 C9.33874862 21.78919369 6.93726937 22.85777458 4.23046875 23.8828125 C3.45976547 24.18789734 2.68906219 24.49298218 1.89500427 24.80731201 C-0.57235971 25.77939515 -3.04767582 26.72922543 -5.5234375 27.6796875 C-7.18868172 28.33458973 -8.85340282 28.9908238 -10.51757812 29.6484375 C-12.10110183 30.2694052 -13.68507202 30.88923578 -15.26953125 31.5078125 C-16.0216539 31.80149719 -16.77377655 32.09518188 -17.5486908 32.39776611 C-22.84810249 34.4296875 -22.84810249 34.4296875 -25.0859375 34.4296875 C-21.20099277 38.51137285 -21.20099277 38.51137285 -15.8359375 39.6796875 C-11.70967599 39.4046034 -9.54536846 38.65909856 -6.0859375 36.4296875 C-3.88451418 33.9906169 -3.88451418 33.9906169 -2.0859375 31.4296875 C0.37144534 28.47931119 2.87863285 27.4925998 6.4765625 26.2421875 C7.44722656 25.89800781 8.41789062 25.55382812 9.41796875 25.19921875 C11.9140625 24.4296875 11.9140625 24.4296875 13.9140625 24.4296875 C14.56182095 32.04084929 11.94880023 38.03956563 7.4140625 44.1171875 C1.29141863 50.83487093 -7.91381757 54.0790353 -16.7734375 54.6796875 C-24.13217721 54.54084335 -31.07663924 52.4840951 -36.484375 47.37109375 C-43.09543199 39.35720272 -46.01801384 30.71704861 -45.0859375 20.4296875 C-43.3946051 12.80435838 -38.84047614 6.02628772 -32.3984375 1.6171875 C-22.39544844 -3.9928539 -10.33545118 -5.82698277 0 0 Z M-27.3984375 15.7421875 C-29.26254941 18.71095832 -29.76361716 20.96474387 -30.0859375 24.4296875 C-22.22214073 22.24628569 -14.66918466 19.43683724 -7.0859375 16.4296875 C-7.0859375 15.4396875 -7.0859375 14.4496875 -7.0859375 13.4296875 C-9.92855742 11.10390757 -11.86007556 10.45432698 -15.5234375 10.0546875 C-20.66637842 10.5960497 -23.74614311 12.08989311 -27.3984375 15.7421875 Z " fill="#CAEF35" transform="translate(390.0859375,284.5703125)"/>
<path d="M0 0 C4.0394725 3.75645214 7.57630262 8.06338272 9.08984375 13.4609375 C8.83094788 15.47064209 8.83094788 15.47064209 8.08984375 17.4609375 C5.49118283 18.81967954 3.06470568 19.88923175 0.3359375 20.9140625 C-0.43950912 21.21914734 -1.21495575 21.52423218 -2.01390076 21.83856201 C-4.4947116 22.81071662 -6.98328018 23.76095877 -9.47265625 24.7109375 C-11.15485214 25.36576286 -12.83650086 26.0219957 -14.51757812 26.6796875 C-18.64226327 28.28984496 -22.77403569 29.88039933 -26.91015625 31.4609375 C-26.91015625 32.1209375 -26.91015625 32.7809375 -26.91015625 33.4609375 C-24.61628095 35.45882889 -22.82191306 36.42961132 -19.75 36.53515625 C-15.19713185 36.14751639 -11.4734655 35.50023069 -7.91015625 32.4609375 C-7.50539063 31.49285156 -7.100625 30.52476562 -6.68359375 29.52734375 C-4.42319536 25.61894565 -2.62308256 25.03768913 1.58984375 23.5859375 C2.73453125 23.17601562 3.87921875 22.76609375 5.05859375 22.34375 C8.08984375 21.4609375 8.08984375 21.4609375 11.08984375 21.4609375 C9.84766809 31.54666223 7.10949015 38.68700687 -0.94921875 45.14453125 C-8.22138158 50.02644136 -16.15346764 52.32560155 -24.91015625 51.4609375 C-32.02639017 49.9054096 -38.17935702 47.11039269 -42.60546875 41.1953125 C-48.24466158 32.31426485 -49.98038678 24.87297927 -47.91015625 14.4609375 C-45.58783263 7.24154016 -40.80562612 1.6521393 -34.22265625 -2.05078125 C-22.46951087 -7.62394394 -10.5688572 -8.51560274 0 0 Z M-31.84765625 13.8984375 C-32.98399527 16.63901984 -33.16183265 18.52471287 -32.91015625 21.4609375 C-27.53908433 19.73127027 -22.21108993 17.89545685 -16.91015625 15.9609375 C-15.79640625 15.55875 -14.68265625 15.1565625 -13.53515625 14.7421875 C-12.66890625 14.319375 -11.80265625 13.8965625 -10.91015625 13.4609375 C-10.58015625 12.4709375 -10.25015625 11.4809375 -9.91015625 10.4609375 C-13.4717218 7.78976334 -16.37125166 6.92304827 -20.8515625 7.109375 C-25.52684267 7.90780994 -28.8879291 10.17490979 -31.84765625 13.8984375 Z " fill="#CAEF35" transform="translate(329.91015625,288.5390625)"/>
<path d="M0 0 C5.08828116 4.65146816 7.75313718 10.85652693 8.42578125 17.66015625 C8.67188366 26.4550792 7.10438666 34.52945966 1 41.1875 C-6.29329806 47.74203726 -15.04403596 49.63961284 -24.58203125 49.5234375 C-33.58989681 48.76098213 -40.83546383 44.98826248 -46.8125 38.25 C-52.20375372 30.75866489 -52.56355508 23.25208269 -51.8125 14.25 C-50.00515257 7.36142437 -45.8936225 1.06456724 -40 -3 C-26.96910623 -10.145974 -11.70575333 -9.12104346 0 0 Z M-32.8125 11.25 C-35.7349897 15.63373454 -36.372024 19.02777599 -35.8125 24.25 C-34.08168726 28.89586577 -32.10881838 31.72824791 -27.8125 34.25 C-23.34487966 35.45567943 -19.90214934 35.62006959 -15.5 34.125 C-11.60565285 31.40801362 -9.31721001 28.76413003 -7.8125 24.25 C-7.41740277 19.01496164 -7.87869149 15.65071276 -10.8125 11.25 C-14.33344303 7.98668694 -17.11643216 6.96185268 -21.8125 6.75 C-26.50856784 6.96185268 -29.29155697 7.98668694 -32.8125 11.25 Z " fill="#171616" transform="translate(520.8125,288.75)"/>
<path d="M0 0 C4.28012158 4.85851638 5 6.23793389 5 13 C0.05 13 -4.9 13 -10 13 C-10.66 11.68 -11.32 10.36 -12 9 C-14.40545638 7.79727181 -15.94996953 7.89928528 -18.625 7.9375 C-19.44226563 7.94652344 -20.25953125 7.95554687 -21.1015625 7.96484375 C-21.72804687 7.97644531 -22.35453125 7.98804688 -23 8 C-23.33 9.65 -23.66 11.3 -24 13 C-23.17757812 13.24234375 -22.35515625 13.4846875 -21.5078125 13.734375 C1.31368843 20.58609583 1.31368843 20.58609583 5.10546875 26.81640625 C7.065982 31.60211326 6.76260754 37.15368702 4.8125 41.875 C-0.32701658 47.90064013 -6.12190162 50.51933518 -13.93359375 51.2890625 C-23.38968187 51.55407389 -30.4509229 49.92648679 -37.58984375 43.59765625 C-40.8863083 39.86288063 -41.2243465 36.93562298 -41 32 C-38.3941111 31.86505754 -35.79517889 31.76597701 -33.1875 31.6875 C-32.44951172 31.64560547 -31.71152344 31.60371094 -30.95117188 31.56054688 C-28.79296875 31.51171875 -28.79296875 31.51171875 -25 32 C-23.16796875 34.4609375 -23.16796875 34.4609375 -22 37 C-17.67520309 38.41025986 -15.03040364 38.01520182 -11 36 C-11.495 33.525 -11.495 33.525 -12 31 C-12.56920166 30.84966309 -13.13840332 30.69932617 -13.72485352 30.54443359 C-16.3431154 29.84087709 -18.95240111 29.10823533 -21.5625 28.375 C-22.45775391 28.13910156 -23.35300781 27.90320313 -24.27539062 27.66015625 C-31.19414251 25.68337 -36.43834993 22.84247511 -40.5 16.75 C-41.39655356 11.8189554 -41.34553994 6.67991357 -39.05859375 2.125 C-35.21442816 -2.94980605 -29.95182754 -4.83308457 -23.875 -5.8125 C-15.63886941 -6.49060338 -6.32794089 -5.67892132 0 0 Z " fill="#171616" transform="translate(221,288)"/>
<path d="M0 0 C2.1875 1.625 2.1875 1.625 3.1875 3.625 C3.68536109 7.85273846 3.86143745 11.42363324 1.75 15.1875 C-2.09577579 17.34488642 -5.51321108 17.49709775 -9.8125 16.625 C-12.875 14.5625 -12.875 14.5625 -14.8125 11.625 C-15.32201861 7.47606275 -15.35916957 4.06300392 -12.8125 0.625 C-8.69775245 -2.31410539 -4.44157542 -2.17143687 0 0 Z " fill="#CAEF35" transform="translate(161.8125,271.375)"/>
</svg>
